# xmcd CD database file
#
# Track frame offsets:
#	150
#	14192
#	26840
#	42970
#	60697
#	75362
#	90067
#	103995
#	114587
#	129155
#	140312
#	157842
#
# Disc length: 2318 seconds
#
# Revision: 2
# Processed by: cddbd v1.5.2PL0 Copyright (c) Steve Scherf et al.
# Submitted via: CDex 1.60beta1
#
DISCID=8e090c0c
DTITLE=Heather Myles - Just Like Old Times
DYEAR=1992
DGENRE=Country
TTITLE0=Love Lyin' Down
TTITLE1=Why I'm Walking
TTITLE2=Changes
TTITLE3=Rum and Rodeo
TTITLE4=Make A Fool Out Of Me
TTITLE5=The Other Side Of Town
TTITLE6=Just Like Old Times
TTITLE7=Stay Out Of My Arms
TTITLE8=I Love You, Goodbye
TTITLE9=Lovin' The Bottle
TTITLE10=One Good Reason Why
TTITLE11=Playin' In The Dirt
EXTD=YEAR: 1992
EXTT0=
EXTT1=
EXTT2=
EXTT3=
EXTT4=
EXTT5=
EXTT6=
EXTT7=
EXTT8=
EXTT9=
EXTT10=
EXTT11=
PLAYORDER=
